<svg version="1.1" id="fb" xmlns="http://www.w3.org/2000/svg" xmlns:xlink="http://www.w3.org/1999/xlink" x="0px" y="0px" width="20.916px" height="45.118px" viewBox="0 0 20.916 45.118" enable-background="new 0 0 20.916 45.118" xml:space="preserve">
<path fill="#f5f5f5" d="M0,14.502h2.578c1.902,0,1.675,0.29,1.708-1.643c0.032-1.58,0.032-3.191,0.13-4.771c0.16-4.189,3.447-7.605,7.669-7.895  C14.727,0,17.402,0.064,20.078,0c0.547,0,0.677,0.257,0.677,0.774c0,2.19-0.032,4.349,0,6.508c0.033,0.646-0.258,0.806-0.837,0.806  c-1.354-0.032-2.74-0.032-4.126-0.032c-0.87-0.128-1.676,0.483-1.836,1.354c0,0.162,0,0.322,0,0.483c0,1.29,0.031,2.546,0,3.803  c0,0.645,0.193,0.87,0.87,0.87c1.676-0.033,3.416-0.033,5.123-0.033h0.904c0.064,0.194,0.064,0.387,0.064,0.582  c-0.193,2.32-0.419,4.64-0.613,6.961c-0.063,0.515-0.29,0.548-0.708,0.548c-1.546,0-3.126,0.064-4.705,0  c-0.741-0.033-0.934,0.225-0.903,0.934c0,6.735,0,13.503,0,20.239c0,1.29,0,1.29-1.255,1.29c-2.45,0-4.898-0.033-7.349,0.032  c-0.837,0-1.096-0.258-1.096-1.096c0.032-6.736,0.032-13.471,0.032-20.239c0-1.16,0-1.16-1.191-1.16H0V14.502z"/>
</svg>