<svg version="1.1" id="insta" xmlns="http://www.w3.org/2000/svg" xmlns:xlink="http://www.w3.org/1999/xlink" x="0px" y="0px"
	 width="43.507px" height="43.506px" viewBox="0 0 43.507 43.506" enable-background="new 0 0 43.507 43.506" xml:space="preserve">
<g>
	<g>
		<path fill-rule="evenodd" clip-rule="evenodd" d="M32.839,0H10.667C4.769,0,0,4.769,0,10.667v22.173
			c0,5.897,4.769,10.667,10.667,10.667h22.172c5.898,0,10.667-4.769,10.667-10.667V10.667C43.507,4.769,38.737,0,32.839,0z
			 M22.139,32.259c-5.994,0-10.859-4.866-10.859-10.861c0-6.025,4.865-10.893,10.859-10.893c6.027,0,10.894,4.868,10.894,10.893
			C33.033,27.393,28.166,32.259,22.139,32.259z M35.136,12.979c-1.78,0-3.223-1.443-3.223-3.223c0-1.779,1.443-3.222,3.223-3.222
			c1.779,0,3.222,1.443,3.222,3.222C38.358,11.536,36.915,12.979,35.136,12.979z"/>
	</g>
</g>
</svg>
