<svg version="1.1" id="twitter" xmlns="http://www.w3.org/2000/svg" xmlns:xlink="http://www.w3.org/1999/xlink" x="0px" y="0px"
	 width="55.335px" height="45.142px" viewBox="0 0 55.335 45.142" enable-background="new 0 0 55.335 45.142" xml:space="preserve">
<g>
	<path d="M55.335,5.408c-1.129,0.387-2.095,0.775-3.094,1.064c-1.031,0.258-2.094,0.452-3.125,0.646l-0.033-0.129
		c1.095-0.709,2.063-1.58,2.869-2.61c0.836-1.032,1.482-2.224,1.869-3.514l-0.548,0.291c-1.934,1.063-4.028,1.87-6.188,2.353
		c-0.29,0.096-0.613,0-0.837-0.259c-1.74-1.771-4.028-2.869-6.51-3.126c-4.286-0.643-8.54,1.291-10.893,4.932
		c-1.45,2.03-2.127,4.48-1.902,6.962c0.033,0.643,0.128,1.289,0.193,1.966c-9.152-0.483-17.661-4.803-23.46-11.86
		C2.451,4.215,1.934,6.666,2.224,9.082c0.354,3.288,2.127,6.252,4.834,8.122c-1.74-0.033-3.448-0.483-4.995-1.322
		c-0.064,2.643,0.837,5.188,2.482,7.251c1.675,2.063,3.963,3.48,6.574,4.028c-1.676,0.452-3.416,0.517-5.125,0.227
		c1.546,4.607,5.802,7.766,10.636,7.959C11.893,38.989,5.963,40.729,0,40.117c1.29,0.774,2.578,1.516,3.933,2.159
		c3.866,1.74,8.023,2.708,12.246,2.837c4.641,0.192,9.25-0.581,13.537-2.29c5.478-2.159,10.215-5.864,13.598-10.699
		c4.351-5.898,6.608-13.084,6.415-20.432c-0.033-0.322,0.129-0.612,0.385-0.774c1.484-1.096,2.804-2.385,3.966-3.835
		C54.498,6.601,54.884,6.021,55.335,5.408z"/>
</g>
</svg>
