<svg version="1.1" id="yt"    xmlns="http://www.w3.org/2000/svg" xmlns:xlink="http://www.w3.org/1999/xlink" x="0px" y="0px" width="51.984px" height="39px" viewBox="0 0 51.984 39" enable-background="new 0 0 51.984 39" xml:space="preserve">
<g>
	<path fill="#f7f7f7" d="M51.464,8.416c0,0-0.508-3.823-2.067-5.507c-1.977-2.207-4.192-2.221-5.208-2.345C36.915,0,26.003,0,26.003,0h-0.025   c0,0-10.911,0-18.185,0.564C6.778,0.688,4.564,0.702,2.584,2.909C1.028,4.593,0.52,8.416,0.52,8.416S0,12.902,0,17.39v4.205   c0,4.49,0.52,8.976,0.52,8.976s0.507,3.821,2.065,5.502c1.98,2.208,4.575,2.141,5.732,2.371C12.475,38.868,25.992,39,25.992,39   s10.923-0.019,18.197-0.578c1.016-0.13,3.231-0.143,5.208-2.349c1.559-1.68,2.067-5.503,2.067-5.503s0.52-4.486,0.52-8.974v-4.206   C51.984,12.902,51.464,8.416,51.464,8.416z"/>
	<polygon  fill-opacity="0.8" points="19.5,9.75 19.5,29.25 35.75,19.5  "/>
</g>
</svg>