<svg version="1.1" id="keune_sign" xmlns="http://www.w3.org/2000/svg" xmlns:xlink="http://www.w3.org/1999/xlink" x="0px" y="0px"
	 width="57px" height="49px" viewBox="0 0 57 49" enable-background="new 0 0 57 49" xml:space="preserve">
<g>
	<path fill-rule="evenodd" clip-rule="evenodd" d="M54.33,17.979c0.037-1.512-1.156-2.767-2.668-2.803
		c-1.506-0.037-2.76,1.156-2.803,2.668c-0.037,1.512,1.156,2.767,2.668,2.803l0.067,0.005c1.487,0.025,2.705-1.163,2.735-2.649
		V17.979z M18.417,9.037c-0.019-1.511-1.26-2.723-2.766-2.699c-1.512,0.012-2.724,1.261-2.706,2.772
		c0.019,1.512,1.261,2.723,2.772,2.705C17.23,11.792,18.436,10.549,18.417,9.037z M8.484,17.942
		c-0.024-1.512-1.261-2.717-2.766-2.705c-1.506-0.012-2.729,1.206-2.735,2.705c0.019,1.512,1.229,2.723,2.735,2.748
		C7.224,20.672,8.454,19.454,8.484,17.942z M28.706,3.156c-1.5,0-2.729,1.199-2.766,2.705c-0.013,1.505,1.194,2.73,2.692,2.742
		c1.506,0,2.735-1.199,2.772-2.705c0-1.5-1.199-2.717-2.699-2.736V3.156z M38.927,9c-0.073,1.512,1.083,2.803,2.595,2.877
		c1.512,0.079,2.797-1.089,2.871-2.595l0.005-0.135c0-1.511-1.199-2.742-2.699-2.784C40.211,6.351,38.987,7.52,38.927,9L38.927,9z
		 M28.706,21.4c-6.561,0.055-11.836,5.428-11.781,12.002c0.061,6.572,5.422,11.854,11.983,11.793
		c6.543-0.055,11.806-5.386,11.782-11.935C40.652,26.67,35.291,21.364,28.706,21.4L28.706,21.4z M17.016,13.989
		c-3.134,0.354-5.331-0.887-6.157-3.385c-0.716-2.258,0.245-4.706,2.301-5.875c2.118-1.175,4.768-0.716,6.371,1.107
		c1.769,2.026,1.622,4.413-0.465,7.087c1.188,2.209,2.374,4.418,3.562,6.591c1.652-0.392,3.201-0.783,4.816-1.175
		c0.184-2.515,0.208-5.037,0.074-7.552c-1.592-0.411-2.895-1.548-3.525-3.066c-0.422-1.041-0.478-2.204-0.141-3.28
		c0.814-2.668,3.641-4.174,6.316-3.354c1.83,0.557,3.189,2.105,3.508,3.996c0.428,2.46-0.863,4.456-3.814,5.735v7.515
		c1.617,0.392,3.201,0.783,4.854,1.175c1.156-2.136,2.346-4.346,3.568-6.622c-1.297-1.169-1.91-2.914-1.622-4.633
		c0.159-1.083,0.698-2.08,1.513-2.815c1.726-1.604,4.326-1.824,6.297-0.532c1.935,1.267,2.742,3.703,1.946,5.875
		c-0.862,2.387-2.986,3.531-6.084,3.207l-3.562,6.628c1.262,1.138,2.479,2.21,3.746,3.348c2.051-1.352,4.137-2.779,6.328-4.205
		c-0.979-2.589,0.324-5.483,2.907-6.469l0.049-0.013c2.209-0.832,4.7-0.036,6.017,1.922c1.297,1.946,1.082,4.535-0.533,6.23
		c-1.873,1.928-4.248,2.032-7.16,0.288c-2.087,1.39-4.211,2.815-6.328,4.241c3.623,6.537,1.873,14.75-4.107,19.236
		c-5.397,3.953-12.729,3.923-18.097-0.074c-5.917-4.521-7.625-12.717-3.996-19.234c-2.124-1.414-4.211-2.816-6.328-4.205
		c-3.023,1.75-5.435,1.597-7.271-0.356c-1.591-1.713-1.781-4.302-0.459-6.23c1.377-1.952,3.922-2.681,6.12-1.744
		c2.411,0.997,3.415,3.207,2.839,6.413c2.087,1.39,4.174,2.816,6.261,4.205c1.261-1.107,2.447-2.209,3.746-3.348
		C19.391,18.475,18.204,16.235,17.016,13.989z"/>
</g>
</svg>
